<svg height="496pt" viewBox="0 0 496 496" width="496pt" xmlns="http://www.w3.org/2000/svg"><g fill="#f0bc5e"><path d="m116.871094 385.71875c-1.664063.472656-3.296875 1.066406-4.871094 1.746094v4.535156c0 11.816406-6.472656 22.015625-16 27.558594v12.441406l32.921875 9.40625c4.558594 1.304688 8.589844 3.632812 12.015625 6.59375h54.125c3.425781-2.960938 7.449219-5.289062 12.015625-6.59375l32.921875-9.40625v-12.441406c-9.527344-5.542969-16-15.742188-16-27.558594v-4.535156c-1.585938-.6875-3.214844-1.28125-4.878906-1.753906l-27.121094-7.742188v-2.136719c9.96875-7.511719 16-19.328125 16-31.832031v-14.34375c0-21.503906-16.007812-39.726562-36.441406-41.503906-11.222656-.984375-22.351563 2.808594-30.582032 10.351562-8.25 7.566406-12.976562 18.320313-12.976562 29.496094v16c0 12.503906 6.03125 24.320312 16 31.832031v2.136719zm0 0"/><path d="m448 48h-432c-8.824219 0-16-7.175781-16-16v-16c0-8.824219 7.175781-16 16-16h432c8.824219 0 16 7.175781 16 16v16c0 8.824219-7.175781 16-16 16zm0 0"/><path d="m48 64h80v168h-80zm0 0"/></g><path d="m131.121094 433.710938-27.121094-7.742188v-2.136719c9.96875-7.511719 16-19.328125 16-31.832031v-14.34375c0-21.503906-16.007812-39.726562-36.441406-41.503906-11.230469-1-22.351563 2.808594-30.582032 10.351562-8.25 7.566406-12.976562 18.320313-12.976562 29.496094v16c0 12.503906 6.03125 24.320312 16 31.832031v2.136719l-27.121094 7.742188c-17.007812 4.863281-28.878906 20.609374-28.878906 38.289062v24h160v-24c0-17.679688-11.871094-33.425781-28.878906-38.289062zm12.878906 46.289062h-128v-8c0-10.574219 7.105469-19.992188 17.273438-22.894531l38.726562-11.074219v-23.070312l-3.976562-2.3125c-7.527344-4.382813-12.023438-12.105469-12.023438-20.648438v-16c0-6.710938 2.832031-13.160156 7.792969-17.695312 5.015625-4.59375 11.542969-6.800782 18.382812-6.207032 12.238281 1.0625 21.824219 12.285156 21.824219 25.558594v14.34375c0 8.542969-4.496094 16.265625-12.023438 20.648438l-3.976562 2.3125v23.070312l38.726562 11.074219c10.167969 2.902343 17.273438 12.320312 17.273438 22.894531zm0 0"/><path d="m307.121094 433.710938-27.121094-7.742188v-2.136719c9.96875-7.511719 16-19.328125 16-31.832031v-14.34375c0-21.503906-16.007812-39.726562-36.441406-41.503906-11.214844-1-22.351563 2.808594-30.582032 10.351562-8.25 7.566406-12.976562 18.320313-12.976562 29.496094v16c0 12.503906 6.03125 24.320312 16 31.832031v2.136719l-27.121094 7.742188c-17.007812 4.863281-28.878906 20.609374-28.878906 38.289062v24h160v-24c0-17.679688-11.871094-33.425781-28.878906-38.289062zm12.878906 46.289062h-128v-8c0-10.574219 7.105469-19.992188 17.273438-22.894531l38.726562-11.074219v-23.070312l-3.976562-2.3125c-7.527344-4.382813-12.023438-12.105469-12.023438-20.648438v-16c0-6.710938 2.832031-13.160156 7.792969-17.695312 5.007812-4.59375 11.582031-6.800782 18.382812-6.207032 12.238281 1.0625 21.824219 12.285156 21.824219 25.558594v14.34375c0 8.542969-4.496094 16.265625-12.023438 20.648438l-3.976562 2.3125v23.070312l38.726562 11.074219c10.167969 2.902343 17.273438 12.320312 17.273438 22.894531zm0 0"/><path d="m465.695312 162.175781-32.617187-8.160156c18.746094-9.390625 30.921875-28.710937 30.921875-50.015625v-16c0-30.871094-25.128906-56-56-56s-56 25.128906-56 56v16c0 21.304688 12.175781 40.625 30.921875 50.023438l-32.617187 8.160156c-17.839844 4.457031-30.304688 20.410156-30.304688 38.800781v55.015625h-288v-208h-16v224h304v48c0 13.230469 10.769531 24 24 24h8v152h112v-152h8c13.230469 0 24-10.769531 24-24v-119.015625c0-18.390625-12.464844-34.34375-30.304688-38.808594zm-97.695312 181.824219v-32h32v168h-32zm80 136h-32v-168h32zm32-160c0 4.414062-3.585938 8-8 8h-8v-104h-16v72h-80v-72h-16v104h-8c-4.414062 0-8-3.585938-8-8v-119.015625c0-11.03125 7.480469-20.609375 18.175781-23.289063l45.824219-11.449218v-22.695313l-5.328125-1.878906c-15.953125-5.648437-26.671875-20.792969-26.671875-37.671875v-16c0-22.054688 17.945312-40 40-40s40 17.945312 40 40v16c0 16.878906-10.71875 32.023438-26.671875 37.671875l-5.328125 1.878906v22.695313l45.824219 11.449218c10.695312 2.679688 18.175781 12.257813 18.175781 23.289063zm0 0"/><path d="m232 240c48.519531 0 88-39.480469 88-88s-39.480469-88-88-88-88 39.480469-88 88 39.480469 88 88 88zm8-16.472656v-67.589844l53.511719-41.167969c6.609375 10.886719 10.488281 23.597657 10.488281 37.230469 0 37-28.054688 67.535156-64 71.527344zm-8-143.527344c20.320312 0 38.664062 8.496094 51.769531 22.078125l-51.769531 39.824219-51.769531-39.824219c13.105469-13.582031 31.449219-22.078125 51.769531-22.078125zm-61.511719 34.777344 53.511719 41.160156v67.589844c-35.945312-3.992188-64-34.527344-64-71.527344 0-13.632812 3.878906-26.34375 10.488281-37.222656zm0 0"/><path d="m48 64h80v16h-80zm0 0"/><path d="m48 96h80v16h-80zm0 0"/><path d="m48 128h80v16h-80zm0 0"/><path d="m48 160h80v16h-80zm0 0"/><path d="m48 192h80v16h-80zm0 0"/><path d="m48 224h80v16h-80zm0 0"/></svg>