<?xml version="1.0" encoding="iso-8859-1"?>
<!-- Generator: Adobe Illustrator 19.0.0, SVG Export Plug-In . SVG Version: 6.00 Build 0)  -->
<svg version="1.1" id="Capa_1" xmlns="http://www.w3.org/2000/svg" xmlns:xlink="http://www.w3.org/1999/xlink" x="0px" y="0px"
	 viewBox="0 0 512 512" style="enable-background:new 0 0 512 512;" xml:space="preserve">
<g>
	<g transform="translate(1 1)">
		<g>
			<path style="fill:#F44335;" d="M229.4,7.533h51.2c9.426,0,17.067,7.641,17.067,17.067v17.067h-85.333V24.6
				C212.333,15.174,219.974,7.533,229.4,7.533z"/>
			<path style="fill:#F44335;" d="M75.8,7.533h17.067c9.426,0,17.067,7.641,17.067,17.067v17.067h-51.2V24.6
				C58.733,15.174,66.374,7.533,75.8,7.533z"/>
			<path style="fill:#F44335;" d="M417.133,7.533H434.2c9.426,0,17.067,7.641,17.067,17.067v17.067h-51.2V24.6
				C400.067,15.174,407.708,7.533,417.133,7.533z"/>
		</g>
		<path style="fill:#D84315;" d="M485.4,58.733v213.333h-25.6V58.733c-0.027-9.414-7.652-17.039-17.067-17.067h25.6
			C477.748,41.694,485.373,49.319,485.4,58.733z"/>
		<path style="fill:#FF5722;" d="M459.8,58.733v213.333h-8.533V75.8H58.733v196.267H24.6V58.733
			c0.028-9.414,7.652-17.039,17.067-17.067h401.067C452.148,41.694,459.773,49.319,459.8,58.733z"/>
		<path style="fill:#607D8B;" d="M312.429,255l38.4-45.568l0.002-0.043c21.042,9.174,45.611,3.423,60.396-14.137
			c8.222-9.675,12.549-22.063,12.139-34.753l-34.852,20.064c-7.118,4.09-16.204,1.638-20.298-5.478l-8.58-14.893
			c-4.054-7.123-1.609-16.182,5.478-20.298l36.013-20.636c-17.861-12.451-41.6-12.408-59.415,0.108
			c-17.815,12.516-25.906,34.834-20.249,55.859l0.012-0.012L254.232,255H312.429z"/>
		<path style="fill:#FFEB3A;" d="M212.333,255l-59.307-94.891c-6.463-10.335-17.949-16.437-30.131-16.007
			c-12.182,0.43-23.209,7.326-28.928,18.091c-5.719,10.765-5.26,23.763,1.203,34.098L131.864,255H212.333z"/>
		<path style="fill:#C52828;" d="M24.6,255h460.8c9.426,0,17.067,7.641,17.067,17.067V485.4c0,9.426-7.641,17.067-17.067,17.067
			H24.6c-9.426,0-17.067-7.641-17.067-17.067V272.067C7.533,262.641,15.174,255,24.6,255z"/>
		<path style="fill:#F44335;" d="M24.6,255h435.2c9.426,0,17.067,7.641,17.067,17.067V485.4c0,9.426-7.641,17.067-17.067,17.067
			H24.6c-9.426,0-17.067-7.641-17.067-17.067V272.067C7.533,262.641,15.174,255,24.6,255z"/>
		<rect x="58.733" y="314.733" style="fill:#F5F5F5;" width="51.2" height="34.133"/>
		<g>
			<rect x="58.733" y="255" style="fill:#CFD8DC;" width="51.2" height="59.733"/>
			<path style="fill:#CFD8DC;" d="M109.933,348.867v42.667c-0.028,9.414-7.653,17.039-17.067,17.067H75.8
				c-9.414-0.028-17.039-7.653-17.067-17.067v-42.667H109.933z"/>
			<rect x="400.067" y="255" style="fill:#CFD8DC;" width="51.2" height="59.733"/>
			<path style="fill:#CFD8DC;" d="M451.267,348.867v42.667c-0.028,9.414-7.652,17.039-17.067,17.067h-17.067
				c-9.414-0.028-17.039-7.653-17.067-17.067v-42.667H451.267z"/>
		</g>
		<rect x="400.067" y="314.733" style="fill:#F5F5F5;" width="51.2" height="34.133"/>
		<path style="fill:#607D8B;" d="M212.333,255h85.333v76.8c0,9.426-7.641,17.067-17.067,17.067h-51.2
			c-9.426,0-17.067-7.641-17.067-17.067V255z"/>
		<path style="fill:#CFD8DC;" d="M212.333,255h59.733v76.8c0,9.426-7.641,17.067-17.067,17.067h-25.6
			c-9.426,0-17.067-7.641-17.067-17.067V255z"/>
	</g>
	<g>
		<path d="M486.4,512H25.6C11.468,511.985,0.015,500.532,0,486.4V273.067c0.015-14.132,11.468-25.585,25.6-25.6h460.8
			c14.132,0.015,25.585,11.468,25.6,25.6V486.4C511.985,500.532,500.532,511.985,486.4,512L486.4,512z M25.6,264.533
			c-4.711,0.005-8.529,3.822-8.533,8.533V486.4c0.005,4.711,3.822,8.529,8.533,8.533h460.8c4.711-0.005,8.529-3.822,8.533-8.533
			V273.067c-0.005-4.711-3.822-8.529-8.533-8.533H25.6z"/>
		<path d="M486.4,264.533H25.6c-2.263,0.001-4.434-0.898-6.035-2.499c-1.6-1.6-2.499-3.771-2.499-6.035V59.733
			c0.015-14.132,11.468-25.585,25.6-25.6h426.667c14.132,0.015,25.585,11.468,25.6,25.6V256c0.001,2.263-0.898,4.434-2.499,6.035
			C490.834,263.635,488.663,264.534,486.4,264.533z M34.133,247.467h443.733V59.733c-0.005-4.711-3.822-8.529-8.533-8.533H42.667
			c-4.711,0.005-8.529,3.822-8.533,8.533V247.467z"/>
		<path d="M452.267,264.533H59.733c-2.263,0.001-4.434-0.898-6.035-2.499S51.199,258.263,51.2,256V76.8
			c-0.001-2.263,0.898-4.434,2.499-6.035c1.6-1.6,3.771-2.499,6.035-2.499h392.533c2.263-0.001,4.434,0.898,6.035,2.499
			c1.6,1.6,2.499,3.771,2.499,6.035V256c0.001,2.263-0.898,4.434-2.499,6.035C456.701,263.635,454.53,264.534,452.267,264.533
			L452.267,264.533z M68.267,247.467h375.467V85.333H68.267V247.467z"/>
		<path d="M298.667,51.2h-85.333c-2.263,0.001-4.434-0.898-6.035-2.499c-1.6-1.6-2.499-3.771-2.499-6.035V25.6
			c0.015-14.132,11.468-25.585,25.6-25.6h51.2c14.132,0.015,25.585,11.468,25.6,25.6v17.067c0.001,2.263-0.898,4.434-2.499,6.035
			C303.101,50.302,300.93,51.201,298.667,51.2z M221.867,34.133h68.267V25.6c-0.005-4.711-3.822-8.529-8.533-8.533h-51.2
			c-4.711,0.005-8.529,3.822-8.533,8.533V34.133z"/>
		<path d="M110.933,51.2h-51.2c-2.263,0.001-4.434-0.898-6.035-2.499s-2.499-3.771-2.499-6.035V25.6
			C51.215,11.468,62.668,0.015,76.8,0h17.067c14.132,0.015,25.585,11.468,25.6,25.6v17.067c0.001,2.263-0.898,4.434-2.499,6.035
			C115.368,50.302,113.197,51.201,110.933,51.2z M68.267,34.133H102.4V25.6c-0.005-4.711-3.822-8.529-8.533-8.533H76.8
			c-4.711,0.005-8.529,3.822-8.533,8.533V34.133z"/>
		<path d="M452.267,51.2h-51.2c-2.263,0.001-4.434-0.898-6.035-2.499c-1.6-1.6-2.499-3.771-2.499-6.035V25.6
			c0.015-14.132,11.468-25.585,25.6-25.6H435.2c14.132,0.015,25.585,11.468,25.6,25.6v17.067c0.001,2.263-0.898,4.434-2.499,6.035
			C456.701,50.302,454.53,51.201,452.267,51.2z M409.6,34.133h34.133V25.6c-0.005-4.711-3.822-8.529-8.533-8.533h-17.067
			c-4.711,0.005-8.529,3.822-8.533,8.533V34.133z"/>
		<path d="M93.867,418.133H76.8c-14.132-0.015-25.585-11.468-25.6-25.6V256c-0.001-2.263,0.898-4.434,2.499-6.035
			c1.6-1.6,3.771-2.499,6.035-2.499h51.2c2.263-0.001,4.434,0.898,6.035,2.499c1.6,1.6,2.499,3.771,2.499,6.035v136.533
			C119.451,406.665,107.999,418.118,93.867,418.133z M68.267,264.533v128c0.005,4.711,3.822,8.529,8.533,8.533h17.067
			c4.711-0.005,8.529-3.822,8.533-8.533v-128H68.267z"/>
		<path d="M110.933,358.4h-51.2c-4.713,0-8.533-3.821-8.533-8.533c0-4.713,3.821-8.533,8.533-8.533h51.2
			c4.713,0,8.533,3.821,8.533,8.533C119.467,354.579,115.646,358.4,110.933,358.4z"/>
		<path d="M110.933,324.267h-51.2c-4.713,0-8.533-3.821-8.533-8.533c0-4.713,3.821-8.533,8.533-8.533h51.2
			c4.713,0,8.533,3.821,8.533,8.533C119.467,320.446,115.646,324.267,110.933,324.267z"/>
		<path d="M435.2,418.133h-17.067c-14.132-0.015-25.585-11.468-25.6-25.6V256c-0.001-2.263,0.898-4.434,2.499-6.035
			c1.6-1.6,3.771-2.499,6.035-2.499h51.2c2.263-0.001,4.434,0.898,6.035,2.499c1.6,1.6,2.499,3.771,2.499,6.035v136.533
			C460.785,406.665,449.332,418.118,435.2,418.133z M409.6,264.533v128c0.005,4.711,3.822,8.529,8.533,8.533H435.2
			c4.711-0.005,8.529-3.822,8.533-8.533v-128H409.6z"/>
		<path d="M452.267,358.4h-51.2c-4.713,0-8.533-3.821-8.533-8.533c0-4.713,3.82-8.533,8.533-8.533h51.2
			c4.713,0,8.533,3.821,8.533,8.533C460.8,354.579,456.98,358.4,452.267,358.4z"/>
		<path d="M452.267,324.267h-51.2c-4.713,0-8.533-3.821-8.533-8.533c0-4.713,3.82-8.533,8.533-8.533h51.2
			c4.713,0,8.533,3.821,8.533,8.533C460.8,320.446,456.98,324.267,452.267,324.267z"/>
		<path d="M281.6,358.4h-51.2c-14.132-0.015-25.585-11.468-25.6-25.6V256c-0.001-2.263,0.898-4.434,2.499-6.035
			c1.6-1.6,3.771-2.499,6.035-2.499h85.333c2.263-0.001,4.434,0.898,6.035,2.499c1.6,1.6,2.499,3.771,2.499,6.035v76.8
			C307.185,346.932,295.732,358.385,281.6,358.4z M221.867,264.533V332.8c0.005,4.711,3.822,8.529,8.533,8.533h51.2
			c4.711-0.005,8.529-3.822,8.533-8.533v-68.267H221.867z"/>
		<path d="M372.721,223.325c-8.367-0.01-16.641-1.749-24.304-5.108c-4.322-1.885-6.297-6.916-4.413-11.238
			c1.885-4.322,6.916-6.297,11.238-4.413c10.956,4.754,23.387,4.785,34.367,0.087c10.98-4.699,19.54-13.712,23.666-24.92
			l-19.504,11.225c-11.21,6.435-25.514,2.571-31.958-8.633l-8.571-14.875c-6.356-11.196-2.535-25.421,8.575-31.925l22-12.608
			c-14.96-4.02-30.928,0.249-41.885,11.199c-10.958,10.949-15.239,26.914-11.231,41.876c1.229,4.548-1.459,9.231-6.006,10.464
			c-4.547,1.233-9.233-1.452-10.469-5.997c-6.597-24.493,2.826-50.496,23.582-65.077s48.414-14.627,69.218-0.114
			c2.393,1.675,3.762,4.458,3.629,7.376c-0.133,2.918-1.749,5.565-4.284,7.016l-36.012,20.634c-2.998,1.776-4.027,5.622-2.317,8.658
			l8.571,14.875c0.837,1.461,2.221,2.528,3.847,2.966s3.358,0.21,4.816-0.632l34.833-20.05c2.596-1.497,5.787-1.522,8.406-0.066
			c2.619,1.456,4.282,4.179,4.382,7.174c0.439,16.268-5.697,32.026-17.021,43.714S388.994,223.25,372.721,223.325L372.721,223.325z"
			/>
		<path d="M255.229,264.533c-3.319-0.001-6.336-1.927-7.735-4.937c-1.399-3.01-0.925-6.558,1.214-9.096l67.242-79.783
			c3.038-3.604,8.421-4.063,12.025-1.025c3.604,3.038,4.063,8.421,1.025,12.025L261.758,261.5
			C260.137,263.426,257.747,264.536,255.229,264.533L255.229,264.533z"/>
		<path d="M313.425,264.533c-3.319-0.001-6.336-1.927-7.735-4.937c-1.399-3.01-0.925-6.558,1.214-9.096l38.4-45.567
			c3.038-3.604,8.421-4.063,12.025-1.025c3.604,3.038,4.063,8.421,1.025,12.025l-38.4,45.567
			C318.333,263.426,315.943,264.536,313.425,264.533L313.425,264.533z"/>
		<path d="M135.775,264.533c-2.946,0.006-5.685-1.51-7.246-4.008l-36.696-58.708c-8.105-12.92-8.695-29.183-1.548-42.656
			s20.943-22.105,36.185-22.641c15.242-0.535,29.61,7.108,37.684,20.047l59.317,94.908c2.499,3.997,1.285,9.263-2.712,11.762
			c-3.997,2.499-9.263,1.285-11.763-2.712l-59.304-94.892c-7.648-11.775-23.257-15.363-35.279-8.108
			c-11.954,7.505-15.58,23.267-8.108,35.242l36.7,58.708c1.642,2.63,1.73,5.944,0.228,8.656S138.876,264.529,135.775,264.533z"/>
		<path d="M176.05,264.533c-2.944,0.005-5.683-1.51-7.242-4.008l-37.375-59.733c-1.628-2.585-1.75-5.842-0.32-8.541
			s4.194-4.428,7.246-4.533c3.053-0.105,5.929,1.43,7.541,4.024l37.375,59.733c1.644,2.629,1.732,5.943,0.231,8.656
			C182.005,262.844,179.151,264.529,176.05,264.533L176.05,264.533z"/>
	</g>
</g>
<g>
</g>
<g>
</g>
<g>
</g>
<g>
</g>
<g>
</g>
<g>
</g>
<g>
</g>
<g>
</g>
<g>
</g>
<g>
</g>
<g>
</g>
<g>
</g>
<g>
</g>
<g>
</g>
<g>
</g>
</svg>
