<?xml version="1.0" encoding="iso-8859-1"?>
<!-- Generator: Adobe Illustrator 19.0.0, SVG Export Plug-In . SVG Version: 6.00 Build 0)  -->
<svg version="1.1" id="Layer_1" xmlns="http://www.w3.org/2000/svg" xmlns:xlink="http://www.w3.org/1999/xlink" x="0px" y="0px"
	 viewBox="0 0 496 496" style="enable-background:new 0 0 496 496;" xml:space="preserve">
<path style="fill:#FFA64D;" d="M352.232,0c-38.4,0-74.496,14.952-101.656,42.112L248,44.688l-2.576-2.576
	C218.264,14.952,182.168,0,143.768,0C64.496,0,0,64.496,0,143.768c0,38.4,14.952,74.496,42.112,101.656L248,448l101.656-98.344
	l104.232-104.232C481.048,218.264,496,182.168,496,143.768C496,64.496,431.504,0,352.232,0z"/>
<g>
	<path style="fill:#333333;" d="M240,328c-35.288,0-64,28.712-64,64s28.712,64,64,64s64-28.712,64-64S275.288,328,240,328z
		 M282.504,369.776L248,380.984V344.72C263.008,347.256,275.664,356.736,282.504,369.776z M232,344.72v36.264l-34.504-11.208
		C204.336,356.736,216.992,347.256,232,344.72z M192,392c0-2.384,0.232-4.704,0.568-7l34.488,11.208l-21.32,29.344
		C197.256,416.888,192,405.056,192,392z M218.688,434.944L240,405.616l21.312,29.336C254.88,438.152,247.664,440,240,440
		S225.12,438.152,218.688,434.944z M274.264,425.552l-21.32-29.344L287.432,385c0.336,2.296,0.568,4.616,0.568,7
		C288,405.056,282.744,416.888,274.264,425.552z"/>
	<path style="fill:#333333;" d="M448,143.768c0,14.296-3.04,28-9.04,40.752l14.48,6.816c7.008-14.896,10.56-30.904,10.56-47.568
		C464,82.144,413.864,32,352.232,32v16C405.04,48,448,90.96,448,143.768z"/>
	<path style="fill:#333333;" d="M419.952,211.488l11.312,11.312c4.648-4.64,8.896-9.712,12.648-15.056l-13.104-9.184
		C427.592,203.152,423.936,207.504,419.952,211.488z"/>
	<path style="fill:#333333;" d="M416,384c-30.88,0-56,25.128-56,56s25.12,56,56,56s56-25.128,56-56S446.88,384,416,384z M416,480
		c-22.056,0-40-17.944-40-40s17.944-40,40-40s40,17.944,40,40S438.056,480,416,480z"/>
	<path style="fill:#333333;" d="M416,416c-13.232,0-24,10.768-24,24s10.768,24,24,24s24-10.768,24-24S429.232,416,416,416z M416,448
		c-4.408,0-8-3.584-8-8s3.592-8,8-8s8,3.584,8,8S420.408,448,416,448z"/>
	<path style="fill:#333333;" d="M448,360c0-13.232-10.768-24-24-24h-72v-48c0-15.664-6.48-29.824-16.888-40H352
		c13.232,0,24-10.768,24-24s-10.768-24-24-24H184v-24c0-30.872-25.12-56-56-56H80c-13.232,0-24,10.768-24,24s10.768,24,24,24h48
		c4.408,0,8,3.584,8,8v216c0,57.344,46.656,104,104,104s104-46.656,104-104c0-2.704-0.2-5.352-0.408-8H416h8
		C437.232,384,448,373.232,448,360z M352,216c4.408,0,8,3.584,8,8s-3.592,8-8,8h-56h-16h-64v16h64h16c22.056,0,40,17.944,40,40v48
		h-8.504c-18.512-28.816-50.776-48-87.496-48c-20.624,0-39.816,6.112-56,16.504V248h16v-16h-16v-16H352z M120,152h-16v-16h16V152z
		 M72,144c0-4.416,3.592-8,8-8h8v16h-8C75.592,152,72,148.416,72,144z M136,153.472v-16.664c18.232,3.72,32,19.872,32,39.192
		v141.128c-6.112,5.872-11.464,12.496-16,19.704V176C152,165.584,145.288,156.784,136,153.472z M240,480c-48.52,0-88-39.48-88-88
		s39.48-88,88-88s88,39.48,88,88S288.52,480,240,480z M341.096,368c-1.304-5.504-2.968-10.872-5.12-16H424c4.408,0,8,3.584,8,8
		s-3.592,8-8,8H341.096z"/>
</g>
<g>
</g>
<g>
</g>
<g>
</g>
<g>
</g>
<g>
</g>
<g>
</g>
<g>
</g>
<g>
</g>
<g>
</g>
<g>
</g>
<g>
</g>
<g>
</g>
<g>
</g>
<g>
</g>
<g>
</g>
</svg>
